/* XPM */
static char *_95ccfeeea654c54cba20e77c7b3ee5fluXMeJehqgRi2Ga5[] = {
/* columns rows colors chars-per-pixel */
"64 64 256 2 ",
"   c #0B0A05",
".  c #0C0C0C",
"X  c #080807",
"o  c #110D0C",
"O  c #160906",
"+  c #0C110C",
"@  c #05120E",
"#  c #12120D",
"$  c #17170B",
"%  c #0B0D13",
"&  c #120C13",
"*  c #0D1212",
"=  c #091418",
"-  c #131313",
";  c #141A12",
":  c #1A1817",
">  c #270704",
",  c #380202",
"<  c #26180C",
"1  c #361609",
"2  c #261B16",
"3  c #351B17",
"4  c #1C2210",
"5  c #282419",
"6  c #342A1D",
"7  c #39261A",
"8  c #352A14",
"9  c #1A1826",
"0  c #1C252E",
"q  c #2A2924",
"w  c #352C23",
"e  c #392C24",
"r  c #3C342B",
"t  c #363129",
"y  c #383A36",
"u  c #312F34",
"i  c #241B24",
"p  c #4C110C",
"a  c #690109",
"s  c #780812",
"d  c #452C1A",
"f  c #44361D",
"g  c #56381B",
"h  c #522B1B",
"j  c #442A24",
"k  c #443A2B",
"l  c #4C3C2C",
"z  c #463725",
"x  c #553A29",
"c  c #473C34",
"v  c #573735",
"b  c #643D34",
"n  c #6A352B",
"m  c #3C4039",
"M  c #4C422C",
"N  c #4A4325",
"B  c #5B442C",
"V  c #58462C",
"C  c #4D4333",
"Z  c #4C443A",
"A  c #48453A",
"S  c #524434",
"D  c #5B4433",
"F  c #53453B",
"G  c #544A3C",
"H  c #5B4C3C",
"J  c #5A4836",
"K  c #5A523D",
"L  c #664A2C",
"P  c #76532E",
"I  c #644C34",
"U  c #624D3B",
"Y  c #694937",
"T  c #764A3A",
"R  c #6C543B",
"E  c #685337",
"W  c #755A3D",
"Q  c #77593B",
"!  c #6B4F2D",
"~  c #6F603F",
"^  c #2F3543",
"/  c #38454A",
"(  c #394958",
")  c #4C4C44",
"_  c #484A46",
"`  c #554C44",
"'  c #595447",
"]  c #4F5254",
"[  c #644C42",
"{  c #675747",
"}  c #745B43",
"|  c #7B5D43",
" . c #765948",
".. c #695C52",
"X. c #76544A",
"o. c #7C6145",
"O. c #7D644B",
"+. c #77654A",
"@. c #6C6254",
"#. c #736453",
"$. c #796858",
"%. c #71644E",
"&. c #4D5A68",
"*. c #746B66",
"=. c #5F614C",
"-. c #87030C",
";. c #870716",
":. c #990616",
">. c #940E14",
",. c #A70719",
"<. c #B80519",
"1. c #A9131A",
"2. c #961723",
"3. c #BB0D23",
"4. c #AA1928",
"5. c #BC1B2C",
"6. c #B71827",
"7. c #B3182C",
"8. c #972E2D",
"9. c #A8272A",
"0. c #B7232D",
"q. c #A92733",
"w. c #BB2432",
"e. c #B92A35",
"r. c #BB353C",
"t. c #A73634",
"y. c #C7071C",
"u. c #C70D24",
"i. c #CC152B",
"p. c #CC1B2D",
"a. c #C61629",
"s. c #D31A2D",
"d. c #DB1B2D",
"f. c #D51429",
"g. c #CD1C33",
"h. c #C71C31",
"j. c #D41C32",
"k. c #DB1D33",
"l. c #D71833",
"z. c #D40A23",
"x. c #E61B2E",
"c. c #E61C33",
"v. c #F01D34",
"b. c #C82636",
"n. c #D42333",
"m. c #DC2235",
"M. c #D72739",
"N. c #C7343F",
"B. c #CD2C35",
"V. c #E32335",
"C. c #E72539",
"Z. c #F4253A",
"A. c #E0222C",
"S. c #835737",
"D. c #894B33",
"F. c #87613E",
"G. c #93633F",
"H. c #B7423D",
"J. c #B83A42",
"K. c #AD3E42",
"L. c #8E3F42",
"P. c #CA3744",
"I. c #D73043",
"U. c #E82B42",
"Y. c #ED3447",
"T. c #885947",
"R. c #8C584D",
"E. c #A64744",
"W. c #B94547",
"Q. c #B05652",
"!. c #836345",
"~. c #82654C",
"^. c #846A4C",
"/. c #8A694A",
"(. c #986748",
"). c #846B53",
"_. c #886956",
"`. c #986855",
"'. c #897457",
"]. c #93775A",
"[. c #8D724D",
"{. c #A76A57",
"}. c #A7745C",
"|. c #A96D4E",
" X c #887767",
".X c #997865",
"XX c #8A716A",
"oX c #A87866",
"OX c #B67B66",
"+X c #B9706A",
"@X c #C7444B",
"#X c #D34D56",
"$X c #C7715C",
"%X c #EC5764",
"&X c #CF716B",
"*X c #F26D76",
"=X c #CE535C",
"-X c #888479",
";X c #998678",
":X c #BA846A",
">X c #A68876",
",X c #AE8A72",
"<X c #AC855A",
"1X c #C7896B",
"2X c #C38C76",
"3X c #D19174",
"4X c #E49D7D",
"5X c #FE7B85",
"6X c #798392",
"7X c #92938F",
"8X c #A99885",
"9X c #B39889",
"0X c #B7A998",
"qX c #B3A28E",
"wX c #AFB0AD",
"eX c #909DA4",
"rX c #D69984",
"tX c #CF9889",
"yX c #FB878B",
"uX c #F98F94",
"iX c #C7A995",
"pX c #D1AA94",
"aX c #EFAD93",
"sX c #CDBAAB",
"dX c #E6B9AA",
"fX c #FFBAB3",
"gX c #F8B0AB",
"hX c #FF9DA4",
"jX c #BDC1B7",
"kX c #D3C2AB",
"lX c #C9C7B9",
"zX c #D9C6B5",
"xX c #D5D0BE",
"cX c #E6C8B9",
"vX c #FEC5BB",
"bX c #E7D5AF",
"nX c #E7D6AE",
"mX c #CABEC1",
"MX c #CAC9C5",
"NX c #D9D7CA",
"BX c #D5D2CE",
"VX c #E5DBC7",
"CX c #F1D8CC",
"ZX c #DDE3D9",
"AX c #E9E6DB",
"SX c #FBEAD8",
"DX c #FDF6D9",
"FX c #F6EBCA",
"GX c #FEF4E4",
"HX c #FDFBED",
"JX c #F6F5E9",
"KX c #FCFCF4",
"LX c #F5FEFD",
"PX c #FBFEFB",
"IX c #F6FBF4",
"UX c #EEEFE6",
/* pixels */
"' ' ....{ .. .} }  .+.#.$. X.X>X8X9XqX0XqXiXiXpXpXpXiXiX,X,X.X'.~. .{ D r r 5 q t r c #.O.'.bXg g aX<X|.|.(.(.(.(.(.(.(.(.G.G.S.",
"-X-X-X7X;X;X X.X).W } U J x g B V D V { '.O.'.pX} qX| | ~.! [.L I 9Xd z C k A y y c c l D Q tX! P nX[.S.S.S.S.S.S.S.S.S.S.P P P ",
"5 6 w C C M V } sXx V >Xx ].g iXV l '.V ~.g B qXg >XE R ^.o.<X!.'.>XU l 6 r A y A c Z S { W <XQ P nX[.P P P P P P P P ! P ! ! ! ",
"5 5 5 ' @.%.} o.qX^.~.].].<X! ,X+.'.O.^.'.o.).>XI .X^.~.).).].o.). XH z C A y A y t t c U B [.B L nX^.! P P ! ! ! ! ! L L L L B ",
"4 $ 5 =.*. XO.R >XW '.~.~.[.L ].} +.+.} | I | ].B ).} } } +.~.E } '.S O lX5 q y _ _ A k l x ).g V bX+.I L L L L L V B B B V V V ",
"4 $ 4 ' ' @.} L ].E R O.W Q x /.U { { R  .I I ).x O.U U R E } D { %.k H A ) _ _ _ ) ) w l z } z N VX~ B L L V B V B B B B B V V ",
"; $ $ ) ' @.U V ).I D R R I x } D H H D U x D +.z { S J H H U D U ..k F ) ] ) _ ] _ ) 5 c d U z f FX+.I I I V V D D D D D D V V ",
"$ ; ; A ` ' S x +.x D U J I d } S S H S H l J { z [ G S S S H l G { r ' ' ] =.] ] ] ] q k 6 { f f FX+.E E E E R E E Y Y Y I J J ",
"; ; ; y ) ` C l  .l l H M J d } C k G S S z l %.6 H C S C C G M F { r @.' ] ) y u q q q Z 7 #.f N FXO.W Q Q W R R R R E E Y I I ",
"; ; ; y ) ` S l %.M C ' C H f %.C C S S K l S %.z K Z G G ` ' G ` @.c t y t q q i * - q c w ..z N FXO.W Q Q Q R Q R R R R I I I ",
"; ; ; m ) ` S l %.M C ' S K f %.C G C S { k S $.k C C w t t c r Z @.@.5 # ; ; : - - - q Z 6 $.z N FXO.W W Q | W W W W Q R E E I ",
"; ; ; m ) ` S l %.M C K C K 8 %.C C Z Z ' k C $.r r w : 2 5 w w r c y y u # : - . ; o t ` 6 ..k N FXO.o.| W +.o.o.o.} W Q R E E ",
"; ; ; m ) ` S l %.M S K C K 8 $.G c Z F ` k F { k t 2 $ o 2 2 $ 2 w 2 5 t : ; : : ; : q F w @.M N FX$.+.+.} O.o.+.+.| Q W W E E ",
"$ $ ; m ) ` S l $.l S K C H d $.C Z Z F { k G r 2 2 2 o $ : 2 $ 2 2 w q t t q . - # # r ` w $.z N DX'.+.O.+.~.O.O.O.o.| | Q W E ",
"$ $ ; m ) ` S l $.l S ' S H d $.C G C S { z l < 5 w r 2 5 $ < $ < 2 : 5 5 u y q q t q y F 6 @.l N DX'.O.~.O.).~.O.O.~.| | | } R ",
"; ; ; m ) ` F l $.l S ' S [ d $.C S C S { z 7 < U  .U [ D J z j j 3 2 6 2 < q KXIXIXJXr =.w #.l M DX'.).).~.).).~.).~.~.| | } R ",
"; ; ; m ) ` F l $.l M { S [ d O.M Z Z ) ..S < R <X(.`.`.}.oX~.T T Y x d x 7 2 A A _ q r ' w *.k k DX'.+.~.| B g x B L L Y E R E ",
"$ # : y ) ` G l *.C C ' C ` d $.M C Z ) ' l 1 ,X:X3X3X3X1X:XOX(.`.OXoX/.`.9X< 6 y q r $ A < < { 5 SX].).).~.!.).O.O.!.Q W W Q Q ",
"F 2 t 5 5 5 r r t q t t u u Z *.8 6 e #.7 d ].2X1X1X3X3X4XaXaX3X:X:X:X:XOX,X{ e c ) @.r $.c c $.z DX].[.[.[./.!.~.O.!.S.Q | W Q ",
"1 < e A ' ) c qXwXwXwXwXeX7X X X6 6 C #.x 1 oX:X1X1XaXaXgXaXaXaXrXrX2XOXOXoXO.7 Z Z $.r $.c F ..z DX'.[./././.~.~.~.!.F.F.Q Q Q ",
".XO.D F ` Z c r u ^ / / ^ _ `  Xe k C @.l 1 T.:X:X3XrXrXrXaXaX3XrX2X:X:X:X`.Y e c F $.e *.c c $.z DX].'./.!./.!.O.O./.!.!.o.Q Q ",
"`.x z U H G c *.7X7XeXeXeX7X-X2 2 < 2 $.l 1 .X,X:XT h n oX2X2X{.g p p n ,XoX .7 7 ` $.j *.c F #.z DX'.[.)./.[.~.I R | !.| | | W ",
"`.`._.H H G F ..] &.&.eX] ] ] k 3 < < w M 8 ;X.Xh x X.v X._.oXT.X.U O.Y x oX Xk w G $.z #.l S @.k DX'.'.^.O.^.O.D { ~.!.!.o.| W ",
"n Y z J ' G F t y ^ / 6X] ] y ..XXx 8 S k < 8X>X_.$.F `  ..X2XT.O.{ #.$.`.9X#.j 5 H $.f #.C S @.k DX'.[.'.~.).O.M { ~.~.o.+.| } ",
"p 1 H F ' ) _ u u 0 ^ ( ( ] c ;X;X_.z  .z x >X>XY _.j v X.T aXD.R.X.j Y  .>X.X> l H $.z #.C C #.N DX'.^.).~.).O.V { o.o.O.O.| W ",
"v j [ Z ) _ _ u ] u ^ &./ ] A { _._.b X.XXb oX9X9X_._._.pX2XaX|.,X_.R.`.OXOX>Xd ;X..O.d #.l S %.z DX).^.^.^.).O.x R ~.!.o.| | Q ",
"p p j Z ) A ) q y 0 ^ &./ / y  Xv XXXXv X.R.:XtXrXpXdXdX{.3XaX1X{.tXpXpXrX:XoXh .X .).d $.l S %.N DX[.[./././.o.z E !.!.T.| Q Q ",
", d 7 S G k G w q 0 ^ &.] ^ : *.u u c j j X.}.:XrXgXrX`.{.rX4X1X{.}.rXaXrXOXoX1  .I ).d #.S l %.f DX[./.!././.!.x R o.S.Q | W Q ",
"T.| R g S M G 6 q u ^ &.&.= : ] ^ ^ u u 3 v `.}.1X:X{.T.:XOXOXOXoXT.}.OXOXOX/.1 >XU ).z %.C S @.z DX[.^./.!.^.| x U +.o.W W Q Q ",
"X.I V N M C M AX2 &.6X6X&.0 9 m 9 9 9 i 3 ;XY ].(.S.S.`.T n T h T.`.T.(.{.}.X.[ ;XH #.z ..C F ..N DXO.O.~.O.O.} l U } +.} } } } ",
"j F G Z ..) ' ' @.*.0 &./ : : q : 9 9 i 2 8Xj | Y Y Y x Y b b b Y { { R X.X.z { qX7X0X;X0X8XqX0X8XGXiXiXsXsXsXsX0XsXsXkXkXkXkXkX",
"& o   + .     o . % % = = @ # o & - % & o O 7 H B I j v b v b b X.z z J z [ e KXKXPXHXKXHXHXKXJXHXJXGXGXGXGXGXGXJXJXDXDXGXGXGXGX",
". . . X           . % % * + + - - - * . # $ < l z V d h X.n n n R.h d S d l w PXKXPXPXPXPXPXLXPXPXIXKXPXPXLXPXKXKXKXHXKXKXKXJXKX",
". . .   X       X . . % * + + # & & * @ + o $ e 7 z d '.T.T.R.R.R.`.l k 2 r q IXPXPXPXPXLXLXLXLXPXPXLXLXLXLXIXLXPXPXPXPXPXIXLXIX",
"X .   X         X % % . + + + + . o - - - . o 2 5 w 3 { .XX.p T oX_.8 w 5 5 BXJXKXPXPXPXLXLXLXLXLXPXLXLXLXLXPXPXPXPXIXPXLXLXLXLX",
"              . . * * . . # # . + # ; - % % * - 2 2 7 7 { #.#.U _.x 7 5 < $ BXAXJXIXKXPXPXPXPXLXLXLXLXLXPXPXPXIXPXu PXPXPXPXLXLX",
"X X             * = * . . o o . + + # - & % - & 2 O 2 7 r { [ l j e 2 $ 2 ' NXBXAXUXJXIXKXPXPXIXLXLXLXPXPXIXPX6X* - u IXPXLXPXLX",
"X X             * = * . . o o . + + + - o o & o 2 v < 2 2 e l e w 2 < < l { lXMXNXVXAXUXJXJXKXKXJXPXPXPXKXPXIXq ; + _ PXPXPXPXLX",
"X X           . + @ @ @ * % . .   + o # # O O $ 7 X.x 3 2 < < 2 < < 3 j X.$.lXlXxXNXNXAXAXAXUXJXKXJXPXKXPXLXKXPX# ; 5 PXPXIXIXPX",
". . + # . . . #   @ @ @ * . . o O O O > > > > 1 oX`.T x d 7 e 5 7 j v X.R._.8XsXzXzXNXNXVXVXAXAXSXGXUXJXIXIXIXIXKXHXKXJXKXKXKXIX",
"o o . . - X   * * *   . . # o O > > , , Q.8.D.OX}.}.R.T b x z e 7 D T R.`.`.`.T dXdXdXcXxXxXNXVXNXNXAXAXUXAXUXJXJXJXUXUXJXUXUXUX",
"O o     . % . . % : o $ > > > , p +XW.t.J.9.t.&X$X|.(.T.T.b x D x x | T.`.`.}.&XE.E.rXfXdXdXcXlXxXlXlXMXNXZXUXZXZXZXAXAXAXAXVXVX",
"#   # . & . & : - o O > , p =XJ.P.I.5.b.B.1.H.$X$X|.|.(.S.T T T R | !.`.`.}.}.&X2.r.0.@XW.hXpXsXwXjXsXMXMXMXMXBXBXBXBXBXNXNXNXNX",
"# ; ; : % : - & $ < , n &X@XP.a.m.Y.i.C.p.B.1.9.$X$X|.(.R.S.T T S./.!.!.}.:XOXt.0.b.<.Y.P.J.n p 1 7 [ 0XsXsXlXMXMXMXMXMXMXMXMXMX",
"+ # ; o - : + $ > , &X%XM.U.M.U.C.u.V.U.s.<.B.b.t.$X|.(./.!.Q S.T.(.`.}.}.1X&X9.b.p.a.I.I.B.#X@X=X, p > 2 wXwXwXmXmXMXMXMXjXlXjX",
"    X .     O > L.&XI.C.c.Y.y.C.C.<.s.m.m.y.M.5.1.t.$XOX`./.`.`.{.{.}.OX&X&X9.w.a.M.a.n.m.m.p.Y.P.#X+Xp 1 e AXAXBXBXBXBXBXwXwXwX",
". X X @ X O , &X#XY.Z.Y.Z.Y.f.U.C.i.m.k.m.u.j.p.w.-.t.Q.(.R.`.`.{.+X+X&X=X9.w.a.s.s.n.p.m.V.s.n.n.B.P.&Xp 1 HXKXPXPXPXPXIXwXwXwX",
"& % @ X   > Q.@XY.C.Z.Z.x.Z.C.d.V.f.U.k.m.m.n.M.6.6.2.t.8.E.Q.Q.Q.E.t.>.9.6.a.i.j.i.p.u.V.f.m.p.V.m.B.P.=Xp dXHXIXIXKXPXPXeXeXwX",
"% % . X O > @XY.l.C.v.v.x.x.C.C.z.l.U.k.m.M.M.M.g.5.5.0.>.-.-.>.-.>.9.0.6.5.6.g.p.s.s.y.M.n.s.M.m.m.n.b.N.@XaXGXHXHXKXKXPX7X7X7X",
"X X . O O Q.#Xi.l.c.x.z.C.d.c.Y.z.c.C.c.m.m.m.n.s.p.n.5.6.5.w.5.5.6.w.5.5.g.p.g.i.s.f.f.M.i.p.s.m.n.j.n.m.N.Q.SXDXHXHXHXIX7X7X7X",
"o o o O , Q.B.d.m.k.C.z.C.y.k.c.x.Z.c.c.C.Z.C.x.c.i.p.p.b.h.b.b.h.b.a.p.a.s.n.p.k.k.d.f.n.n.d.f.s.s.i.i.V.6.r.rXDXHXJXKXKX-X-X-X",
"sXlXsXdXuXr.U.V.k.<.k.f.V.z.U.y.x.Z.x.C.Z.v.Z.v.c.d.m.j.s.p.h.a.n.p.3.n.s.j.j.s.s.k.k.i.s.k.f.d.k.a.i.s.f.n.r.E.GXGXHXHXGXqX-X-X",
"sXkXzXdXW.B.m.d.i.i.l.u.m.u.l.C.f.C.x.Z.v.x.v.C.C.C.V.k.s.j.s.j.s.j.M.p.j.n.i.i.m.n.m.s.k.f.y.f.l.u.i.k.u.g.6.K.SXSXGXHXGXCX X X",
"zXsXsXgXr.p.f.d.C.j.<.i.i.a.u.l.C.V.x.v.v.v.c.V.C.V.c.V.k.m.d.k.s.m.n.u.M.B.p.n.n.n.p.s.V.d.C.s.j.a.i.u.l.<.b.t.vXGXGXGXGXSX-X-X",
"8X9XtX&X0.n.u.C.y.a.<.a.a.3.<.i.C.d.C.x.x.C.c.V.d.V.V.d.k.C.m.k.l.m.j.M.b.b.e.yX%XB.m.d.u.y.l.i.g.a.j.u.a.h.b.q.E.`._.zXSXSX;X7X",
"VXCXvXE.N.j.a.<.a.M.h.6.5.7.a.U.y.y.C.k.d.V.d.d.V.d.m.k.m.j.n.U.M.g.B.N.P.yXW.gXhX0.p.s.i.a.i.h.5.6.g.h.3.6.1.e.t.{.`.iX8XSX8X8X",
"VXCXvXJ.I.i.M.p.,.,.h.:.4.1.b.a.k.m.j.s.s.k.m.k.C.s.k.m.M.B.5.e.P.J.uXfX&XyXhXvXW.e.h.j.3.g.3.3.7.w.,.,.3.5.6.e.q.uX].8XcXSX8XqX",
"FXSXfXe.M.j.<.3.,.-.-.e.;.;.,.g.<.j.u.g.g.M.n.a.n.n.a.n.b.uX5XhXgXE.*X*XyXyXr.@Xr.hXI.5.3.h.,.:.:.2.:.1.b.:.0.0.q.&X.XVXCXiX8X0X",
"SXCXW.P.a.j.g.3.5.:.:.s s s :.3.g.3.n.5.b.%Xb.5Xb.B.b.5Xe.uXyX&XfXCXW.@XP.b.b.g.h.B.*Xe.7.5.,.:.;.q.:.1.:.6.3.5.q.8.9XVXcX9X0X0X",
"kXdXW.a.U.i.j.,.,.w.4.;.a a J.,.h.5.b.P.%Xe.5Xb.w.b.uXe.@X=XK.yXfXt.e.b.M.h.m.m.g.N.e.@Xw.,.:.-.a ;.q.e.,.5.b.5.e.s dX>XcXpXsXsX",
"FXfXN.M.V.u.g.3.3.:.4.s a s 4.w.7.e.5XyXgXuX%XN.w.b.P.9.r.#X*X0.4.w.g.k.l.a.b.0.N.#X5X7.1.:.;.a s 2.q.:.7.5.,.5.4.8.dXO.cXCXcXzX",
"CXQ.b.C.y.k.j.g.,.:.:.;.a a -.0.4.#XyXt.8.9.J.w.w.*Xe.e.0.w.w.7.1.a.u.k.g.b.N.uXhXq.4.4.:.:.s a s ;.:.4.b.,.5.1.4.K.vXiXtXcXcXzX",
"vXW.M.V.y.k.j.h.h.,.:.;.s a 2.>.4.@X4.7.7.e.w.0.w.b.B.h.b.5.N.%X@Xw.#X5XyX#Xb.0.0.6.6.4.4.;.2.a a ;.4.b.:.4.w.4.7.J.rXiX.XcXcX>X",
"vX@XB.A.x.d.U.3.<.6.w.q.s 8.;.2.@X2.5.6.%X5.*X7.w.5.a.g.b.5.#X@Xq.e.7.7.0.9.0.6.3.6.,.,.q.>.s a s 2.b.,.w.5.,.7.:.q.R.9XsXsXsXcX"
};
