/* XPM */
static char *_610d707156542ada243623241b74258Q7QbBP8X9HiRr9Hz[] = {
/* columns rows colors chars-per-pixel */
"64 64 208 2 ",
"   c #050206",
".  c #0D0B0C",
"X  c #060C0A",
"o  c #120405",
"O  c #130908",
"+  c #12130C",
"@  c #1C130B",
"#  c #120C11",
"$  c #1A1915",
"%  c #171817",
"&  c #250900",
"*  c #291C15",
"=  c #231E1B",
"-  c #2A1E1E",
";  c #1F221C",
":  c #21211D",
">  c #2A271B",
",  c #392B19",
"<  c #312819",
"1  c #252523",
"2  c #2B2622",
"3  c #292A26",
"4  c #2B2B2C",
"5  c #272729",
"6  c #342827",
"7  c #393326",
"8  c #2F2F31",
"9  c #333333",
"0  c #373739",
"q  c #3B3B3B",
"w  c #383836",
"e  c #491F13",
"r  c #432F17",
"t  c #41321F",
"y  c #483C2C",
"u  c #473C35",
"i  c #633829",
"p  c #4C4435",
"a  c #4E4A3C",
"s  c #434337",
"d  c #5B4A31",
"f  c #524A3B",
"g  c #564837",
"h  c #58503D",
"j  c #57432B",
"k  c #694D3F",
"l  c #64513C",
"z  c #6A563D",
"x  c #675838",
"c  c #70573A",
"v  c #745937",
"b  c #634A2B",
"n  c #74603F",
"m  c #3E3E40",
"M  c #434343",
"N  c #494947",
"B  c #49494A",
"V  c #584E45",
"C  c #575545",
"Z  c #525253",
"A  c #5A5A5B",
"S  c #575759",
"D  c #7F4F43",
"F  c #645343",
"G  c #645A46",
"H  c #69524A",
"J  c #645D4C",
"K  c #6A5C4B",
"L  c #6A5847",
"P  c #755E4E",
"I  c #665950",
"U  c #68614C",
"Y  c #756146",
"T  c #7C6242",
"R  c #7A694B",
"E  c #72634D",
"W  c #656059",
"Q  c #736452",
"!  c #7B6958",
"~  c #5F5F61",
"^  c #636364",
"/  c #6B6B63",
"(  c #676769",
")  c #6B6B6D",
"_  c #7A6A63",
"`  c #787267",
"'  c #6F6F71",
"]  c #737375",
"[  c #777779",
"{  c #7B7B7D",
"}  c #84493B",
"|  c #824E40",
" . c #8B6B4C",
".. c #876845",
"X. c #8C724F",
"o. c #816354",
"O. c #86665B",
"+. c #887458",
"@. c #A5725D",
"#. c #A56C58",
"$. c #826A65",
"%. c #956F62",
"&. c #8C736F",
"*. c #837865",
"=. c #957767",
"-. c #847C76",
";. c #907E70",
":. c #A67868",
">. c #90816C",
",. c #81827A",
"<. c #938777",
"1. c #A58678",
"2. c #BE8B78",
"3. c #BF907C",
"4. c #C78C7E",
"5. c #C3907D",
"6. c #7E7E80",
"7. c #838385",
"8. c #868688",
"9. c #8A8A8B",
"0. c #888984",
"q. c #8F908B",
"w. c #969389",
"e. c #8E8E91",
"r. c #939395",
"t. c #969698",
"y. c #9B9B9C",
"u. c #9C9D97",
"i. c #948485",
"p. c #B1948E",
"a. c #AB9A90",
"s. c #B49E93",
"d. c #AA9085",
"f. c #9E9EA0",
"g. c #A3A4A5",
"h. c #A6A6A9",
"j. c #ABABAD",
"k. c #AAABA3",
"l. c #B2B1A7",
"z. c #B8B8AB",
"x. c #AFAFB1",
"c. c #B3B3B4",
"v. c #B9B9BB",
"b. c #C58B80",
"n. c #C8958A",
"m. c #C39B99",
"M. c #C9A598",
"N. c #D8A594",
"B. c #C2A6A2",
"V. c #CEBAA8",
"C. c #C0C1B9",
"Z. c #BEBEC0",
"A. c #C2C2C3",
"S. c #C7C7C9",
"D. c #CACACC",
"F. c #CBCDC0",
"G. c #D5D3C6",
"H. c #D1D1CF",
"J. c #DDDBCA",
"K. c #CFCFD1",
"L. c #D2D2D4",
"P. c #D7D7D9",
"I. c #DCDCDE",
"U. c #D7D7D7",
"Y. c #E8E1CF",
"T. c #E8E3D7",
"R. c #F4EDDB",
"E. c #FFEDDD",
"W. c #FFF6DE",
"Q. c #DFDFE1",
"!. c #E2E2E4",
"~. c #EFEFE5",
"^. c #E6E6E9",
"/. c #ECECED",
"(. c #FEF6E3",
"). c #FFF9E4",
"_. c #FFFEEE",
"`. c #F9F3E7",
"'. c #EFEFF1",
"]. c #F0EFF4",
"[. c #F5F5F6",
"{. c #F6F8F3",
"}. c #FDFCF5",
"|. c #F7F7F9",
" X c #FBF7FB",
".X c #F6FDFD",
"XX c #FFFFFB",
"oX c #FEFEF9",
"OX c #FAFAFC",
"+X c #FBFBFD",
"@X c #FAFAFF",
"#X c #FFFAFE",
"$X c #FAFDFE",
"%X c #FDFDFD",
"&X c gray99",
"*X c #FFFFFD",
"=X c #FEFFFD",
"-X c #FCFCFE",
";X c #FDFDFF",
":X c #FCFDFF",
">X c #FFFDFF",
",X c #FDFFFF",
"<X c #FEFEFE",
"1X c #FEFEFF",
"2X c #FFFEFF",
"3X c #FEFFFF",
"4X c white",
"5X c #FEFEFE",
/* pixels */
"4XD.4 8 [ 4X4X4X4X4X4XOX4X4X4X4X4X4X4X4X4X4X4X4X4XOX4X4X4X4X4X4X4XOX4X4XOX4X4X4X4X4X4X4X4X4X4X4XOX4X4X4X4X4X4X4X4X4X4X4X4X4X4X4X",
"4XOXM Z 4X4X4X4X4X4XZ 8.4X4XOXOX4X4XOX4X4X4X4X4XOX4X4X4X4X4XOX4X4X4XOX4X4X9 OX4X4X4X4XOX4X4X4X4X4XOX4X4X4X4X4X4XOX4X4X4X4X4X|.4X",
"4X[.4X4X!.4X4XOX4X4Xj.OXA 4X4X4X4X4X4X4X4X4X[.4X4X4X4X4X4X4X4X4XOX4X4X4X4X4 4X4X4X4X4X4X4X4X4X9 4Xg.4X4X4X4XOX4X4X4XOX4X4XOX4X4X",
"4X7.OX4XD.OX4X4X4X4Xc./.( OXZ f.4XOXZ h.4X] M 4X4XOX7.^ 4X] [.!.L.P.q P.4X9 OX{ 4X) OXj.Z 8.4X5 |.A.4Xr.B [.4Xt.4 OX4XM Q.4X4XK.",
"4 A 4X4Xh.8 8 OXOX4XA v.4X4 OX!.OX4 OXc.!.4 4X4X4X) [.|.{ { OX4 4XA 4XA OX8 4Xq 4X4 L.x.4X4 4X9 4Xy.] /.4X9 OXA 4Xq 4XZ.4X4X4Xv.",
"8 5 ] ] 5 8 9 4X4X4Xx.4X4X9 4X|.4X4 4XOX4X5 4X4XOXm OX4XOXOXM r.4X8.4Xv.4X9 4X9 4X4 c.OX4X9 4X8 4Xt.~ 4X4X9 4X[ 4Xm 4XOX4 4X4XL.",
"4 y.OXOX/.5 Z 4X4X4Xc.OX4XA.9 9 4Xj.q 9 4X4 OX4X4XOX9 9 /.4X^ 4X4X9 q M 4X4 4Xq q g.4X5 M 5 4X9 4Xt.4X9 q y.4X{ 4Xq !.M q 4XOX4X",
"OX4X4X4X4XOX4X4X4X4X4X4X4X4X4X4X4X4X4X4X4X4X4X4X4X4X4X4X4X&X4X4X4XOX4X4X4X4X4X4X4X4X4X4X4X4X4X4X4X4X4X4X4X4X4XOX4XOX4X4XOX4X4X4X",
"4X4X4X4X4X4X4X4X4X4X4X4X4X4X4X4X4X4X4X4X4X4X4X4X4X4X4X4X4X4X4X4X4X4X4X4X4X4X4X4X4X4X4X4X4X4X4X4X4X4X4X4X4X4X4X4X4X4X4X4X4X4X4X4X",
"4X4X4X4X4X4X4X4X4X4X4X4X4X4X4X4X4X4X4X4X4X4X4X4X4X4X4X4X4X4X4X4X4X4X4X4X4X4X4X4X4X4X4X4X4X4X4X4X4X4X4X4X4X4X4X4X4X4X4X4X4X4X4X4X",
"4X4X4X4X4X4X4X4X4X4X4X4X4X4X4X4X4X4X4X4X4X4X4X4X4X4X4X4X4X4X4X4X4X4X4X4X4X4X4X4X4X4X4X4X4X4X4X4X4X4X4X4X4X4X4X4X4X4X4X4X4X4X4X4X",
"4X4X4X4X4X4X4X4X4X4X4X4X4X4X4X4X4X4X4X4X4X4X4X4X4X4X4X4X4X4X4X4X4X4X4X4X4X4X4X4X4X4X4X4X4X4X4X4X4X4X4X4X4X4X4X4X4X4X4X4X4X4X4X4X",
"4X4X4X4X4X4X4X4X4X4X4X4X4X4X4X4X4X4X4X4X4X4X4X4X4X4X4X4X4X4X4X4X4X4X4X4X4X4X4X4X4X4X4X4X4X4X4X4X4X4X4X4X4X4X4X4X4X4X4X4X4X4X4X4X",
"4X4X4X4X4X4X4X4X4X4X4X4X4X4X4X4X4X4X4X4X4X4X4X4X4X4X4X4X4X4X4X4X4X4X4X4X4X4X4X4X4X4X4X4X4X4X4X4X4X4X4X4X4X4X4X4X4X4X4X4X4X4X4X4X",
"4X4X4X4X4X4X4X4X4X4X4X4X4X4X4X4X4X4X4X4X4X4X4X4X4X4X4X4X4X4X4X4X4X4X4X4X4X4X4X4X4X4X4X4X4X4X4X4X4X4X4X4X4X4X4X4X4X4X4X4X4X4X4X4X",
"4X4X4X4X4X4X4X4X4X4X4X4X4X4X4X4X4X4X4X4X4X4X4X4X4X4X4X4X4X4X4X4X4X4X4X4X4X4X4X4X4X4X4X4X4X4X4X4X4X4X4X4X4X4X4X4X4X4X4X4X4X4X4X4X",
"&X&X}.XX4X4X4X4X4X|.&X4X X4X&X4XXXXXXX4X4XOX4X4X4X4X4X4X4X4X4X4X4XOX4X4X4X4X4X4X4X4X4X4X4X4X4X4X4X4X4X4X4X4X4X4X4X4X4X4X4X4X4X4X",
".X&XXXXX-X4X4X4X}.XX&XXX4XoX4XXX}.}.}.4X4X4X4X&X4X4X4X}.] { e.4X4X] 4Xy.OX4X] 4Xv.OX4X7.4X4Xg.4X] ] ] e.{ 7.D.] y.OX4X4X] 6.OX{ ",
"4X4X}.}.4X-XoXU.a > 7 ` 2 $ 6 -._._.}.XX4XOXOX4X4X4XXXXX4XOX].!.4Xc.OX[ 4X4X' 4Xj.4X4X] |.^.( 4X4X) 4X{ 4X4XA.4X4X7.4X4X) OXL.P.",
"-X4XXXXX}.}.W I G G G J C ` <.<.d.V._.}.oX4X4X4X4X4X4X4X7.t.4X] x.4XP.4X( OX' 4Xx.4X4X{ 4X( OX[.4X) OX7.9.x.A.4X4X( OX4X) ( I.4X",
"-X-XXX}.Y.w.K Q Q L ! +.7 7 y z Y z F _.}.XX4X4X4X&X4X4X[.4X4Xh.] 4X) x.g.4X( 4Xc.4XOX{ |.j.j.' 4X( 4X7.4X4XS.4X4X{ 4XOX) 4X( 4X",
"-X4XXX~.G U h g d j +.g u V g r c b d L }.}.XX4X4X4X4X4X) ( 4X4X!././.4X4X{ ) ( 4X{ ( OX[ 4X4XL.4X) 4X7.( [ D.( t.OX4X4X( ( !.4X",
"-X-XXX+ a C s a K ;.s.! -.= @ t ..v c l V.}.XX4X4XOX4X4XOX4XOX4X4X4X4X4X4X4X4X4X4X[.4X4XOX4X4X4X4X4X4X4X4X4X4X4X4X4X4X4X4X4XOX4X",
"4X4Xk.+ C C s a a.&.B.&.i.9 u ,  ...T z *.}.}.4X4X4X4X4X4X4X4X4X4X4X4X4X4X4X4X4X4X4X4X4X4XOX4X4X4X4X4X4X4X4X4X4X4X4X4X4X4X4X4X4X",
"&X}.< , p J U p ;.M.m.d.$.$.Q d X...T c E _.}.XX4X4X4X4X4X4X4X4X4X4X4X4X4X4X4X4X4X4X4X4X4X4X4X4X4X4X4X4X4X4X4X4X4X4X4X4X4X4X4X4X",
"}._.l O.F y f F o.e n.i O.1.R b X. .v Y >.(.}.XX4X4X4X4X4X4X4X4X4X4X4X4X4X4X4X4X4X4X4X4X4X4X4X4X4X4X4X4X4X4X4X4X4X4X4X4X4X4X4X4X",
"}.T.k o.H O f L %.N.b.n.2. .n x X.T Y L *.`.}.XX4X4X4X4X4X4X4X4X4X4X4X4X4X4X4X4X4X4X4X4X4X4X4X4X4X4X4X4X4X4X4X4X4X4X4X4X4X4X4X4X",
"}.l.H O.H o V F :.5.} 4.@.i R x +.R Y E *.R.}.XX4X4X4X-XOXOX}.}.[.[.[.[.[.[.[.[.[.[.[.[.[.[.[.[.[.[.[.[.[.[.[.[.[.[.[.[.[.[.[.[.",
".Xg.O o # . . @ & :.:.:.%.E.)._.).W.(.R._.}.{.XX4X4X4XOX|.[.[.[.[.[.[.[.[.[.[.[.[.[.[.[.[.[.[.[.[.[.[.[.[.[.[.[.[.[.[.[.[.[.[.[.",
".XP.. #   % X O & :.| D 1.$.T.`._.).U _._.T.XXXX4X4X-X X[.[.[.{.OXOXOXOXOXOXOXOXOXOXOXOXOXOXOXOXOXOXOXOXOXOXOXOXOXOXOXOXOXOXOXOX",
".X&X  . # + ; f V.3.#.:.p.u 2 _ G.J.J.J.G.F.XXXX4X4X4X X[.[.[.{.[.[.[.[.[.[.[.[.[.[.[.[.[.[.[.[.[.[.[.[.[.[.[.[.[.[.[.[.[.[.[.[.",
"&XXX+ # . 9 3 7 P M.n.M.$.- 6 2 > / z.z.l.~.}.XX4X4X4XOX[.[.[.[.[.[.[.[.[.[.[.[.[.[.[.[.[.[.[.[.[.[.[.[.[.[.[.[.[.[.[.[.[.[.[.[.",
"&XXXH.. ^ W s 4 u * u * - 9 2 2 = ,.C.w.q.XXXX4X4X4X4X[.|.|.[.[.OX[.OX[.[.OX[.}.[.[.[.OX[.OX[.}.|.[.[.OX[.[.OX}.OX[.OX[.[.[.OX[.",
"4X4XXX9 s 1 B 9 r.4 M q 1 5 3 Z q : 4 u.!.XX4X4X4X4X4X[.|.|.|.|.[.OX[.[.OX[.OX[.[.OX[.[.[.[.4X[.[.OXOX/.4X[.[.[.[.4X[.OXOXOX[.[.",
"}.XX4X4X$ w ( 8.4 4 N 3 9 9 3 : ; 1 4 q.XX}.4XXX4XXX4X[.[.[.|.|.[.OX[.OX[.[.OXOX[.[.[.OXOX[.[.OX[.OXOX4X[./.OXOXOX[.OX[.[.OX[.OX",
"4X4X4XOXXX1 4 ( M ] 5 3 q 1 9 A + % 0.XXXXXX4X4X4XXX4X[.}.[.OX|.[.4 5 /.OXOXOX[.[.OX[.OXOXOX4X[.4X[.[.[.4Xc.[.OXOX[.[.OX[.|.|.[.",
"XX4X}.4X4X4Xw 1 9 9 M w $ 1 1 1 % H.XX4X4X4X[.4X4XXX4X[.[.[.[.[.OX^ |.q OX[.|.|.OX[.OX|.[.OX'.|.|.[.4X[.|.v.|.[.[.OX[.OXOX[.|.|.",
"OX4X4X4X4X4XXX4Xq % M 4 N 9.M A.4X4X4XOX4XXX4X4X4XXX4X[.[.[.[.[.[.Z ' h.[.j.9 A A.j.9 [.I.8 q A [.9 8.q OXc.|.4 5 q OX4 M OX[.[.",
"4X4XOX4X4X4X4XOX4X4X4XXX4X4X4X4X4XXX4X4XOX4X4XOX4XXX4X[.[.[.[.[.4XS [.8 [.5 [.^.S.[ { 4X4 |.[.Z [.!.OXq |.c.B |.OX0 '.v.OXOX[.OX",
"4XOX4X4X4X4XOX4X4X4X4X4X4X4X4X4X4X4X4X4X4X4X4X4X4XXX4X[.[.[.[.[.[.( OX~ OX8 OXK.A.'.'.) 8 |.'.A |.!.[.q [.c.M |.[.9 [.D.|.[.OXOX",
"4X4X4X4X4X4X4X4X4X4X4X4X4X4X4X4X4X4X4X4X4X4X4X4X4X4X4X[.[.[.[.[.OX4 4 c.OXA.4 y.S.g.8 /.!.5 ~ A OX!.OXM |.c.|.4 q 0 |.D.OX[.[.|.",
"4X4X4X4X4X4X4X4X4X4X4X4X4X4X4X4X4X4X4X4X4X4X4X4X4X4X4X[.}.}.[.[.[.OX|.|.|.|.[.OX[.OXOXOX[.4XOXOX[.OX[.|.[.OXOX|.[.OXOX|.[.OXOX|.",
"4X4X4X4X4X4X4X4X4X4X4X4X4X4X4X4X4X4X4X4X4X4X4X4X4X4X4X[.[.[.[.[.OX[.OX|.OX|.OX[.4XOX|.|.|.|.[.[.OX|.4X[.OXOX[.|.|.OXOX[.4XOX/.|.",
"4X4X4X4X4X4X4X4X4X4X4X4X4X4X4X4X4X4X4X4X4X4X4X4X4X4X4X[.[.[.[.[.OX[.[.OX[.[.|.[.|.[.4X[.|.OXOXOX[.[.[.|.OX[.[.OXOX[.OX[.|.|.|.OX",
"4X4X4X4X4X4X4X4X4X4X4X4X4X4X4X4X4X4X4X4X4X4X4X4X4X4X4X[.[.[.[.[.[.4X[.OX[.[.OXOX[.[.OX[.[.[.[.[.[.4X[.[.OXOXOX[.OX[.[.4X[.OXOX{.",
"4X4X4X4X4X4X4X4X4X4X4X4X4X4X4X4X4X4X4X4X4X4X4X4X4X4X4X[.[.[.[.[.[.[.OX[.[.4X[.[.}.[.[.[.4XOX4X[.[.[.OX[.[.[.[.OX[.[.4X[.{.OX[.OX",
"4X4X4X4X4X4X4X4X4X4X4X4X4X4X4X4X4X4X4X4X4X4X4X4X4X4X4X|.|.|.|.|.OX|.[.[.OX[.OXOX{.4X[.[.[./.4X[.}.}.}.[.[.4X[.[.OX4X[.OXOX4X[.OX",
"4X4X4X4X4X4X4X4X4X4X4X4X4X4X4X4X4X4X4X4X4X4X4X4X4X4X4X|.|.|.|.|.[.[.[.OX[.OX[.[.}.{.OXOXOXOX[.OX[.OX{.OX[.[.[.OX[.[.OX[.OX[.OX[.",
"4X4X4X4X4X4X4X4X4X4X4X4X4X4X4X4X4X4X4X4X4X4X4X4X4X4X4X}.[.[.[.[.[.[.OXOX[.[.OXOX[.OXOX[.OX[.[.{.OX[.[.oX{.XX[.[.[.OXOX[.OX[.[.[.",
"4X4X4X4X4X4X4X4X4X4X4X4X4X4X4X4X4X4X4X4X4X4X4X4X4X4X}.4X4X4X4X4X4X4X4XOX4X4X4XXX4XOXOX4XOX4X4X4X4X4X4X4XOX4X4X4X4X4X4X4X4X4X4X4X",
"4X4X4X4X4X4X4X4X4X4X4X4X4X4X4X4X4X4X4X4X4X4X4X4X4X4X4XOX4X4X4X4X4X4X4X4X4XXX4X4X4X4X4X4X4X4X4XOX4X4X4X4X4X4X4X4X4X4X4X4X4X4X4XOX",
"4X4X4X4X4X4X4X4X4X4X4X4X4X4X4X4X4X4X4X4X4X4X4X4X4X4X4X4X4X4XOX4X4XOX4X4XOX4XOX4X4X4X4X4X4X4XOX4X4XOX4X4X4X4X-X4X4X4XOX4X4XOX4X4X",
"4X4X4X4X4X4X4X4X4X4X4X4X4X4X4X4X4X4X4X4X4X4X4X4X4X4X4XOXOX4XOX4XOX4X4X4X4X4X4X4X4X4X4X4X4XOX4X4X4X4X4X4X4X4XOX4X4X4X4X4X4X4X4X4X",
"4X4X4X4X4X4X4X4X4X4X4X4X4X4X4X4X4X4X4X4X4X4X4X4X4X4X4X4X4X4X4X4X4X4XOX4X4X4XOX4X4XOX4X4X4X4X4X4XOX4X4XOX4X4X4X4X4XOX4X4X4X4X4X4X",
"4X4X4X4X4X4X4X4X4X4X4X4X4X4X4X4X4X4X4X4X4X4X4X4X4X4X4X4XOX4X7.4Xh.g.c.[ 4X) 4X4XL.4X^ v.S.7.j.j.t.4X] S.A.OX4X{ v.4Xt.c.OX7.c.[.",
"4X4X4X4X4X4X4X4X4X4X4X4X4X4X4X4X4X4X4X4X4X4X4X4X4X4X4X4X!./.8.4Xj.4X4X'.4X( ' 4XL.4X) !./.8.4X] v.4X) [.4X4X4X7.!.4XD.^.4Xe./.4X",
"4X4X4X4X4X4X4X4X4X4X4X4X4X4X4X4X4X4X4X4X4X4X4X4X4X4X4X4X}.OXr.4XA.4X4X[.4X( 4X( L.4X( 4X4X{ ] 4X4X4X4X!.g.OX4X7.4X4XI.4X4Xt.4X4X",
"4X4X4X4X4X4X4X4X4X4X4X4X4X4X4X4X4X4X4X4X4X4X4X4X4X4X4X4X[.4X7.4X( |.4X( 4X^ 4X4X( 4X) 4X4X8.[.L.4X4Xr.4X8.4XOX9.4X4XL.4X4Xt.4X4X",
"4X4X4X4X4X4X4X4X4X4X4X4X4X4X4X4X4X4X4X4X4X4X4X4X4X4X4X4X4X4X4X4X4XOX[.4X4X4X4XOX4X4XOX4X4X4X4X4X4X4X4X!.4XOX4X4X4X4X4X4X4X4X4XOX",
"4X4X4X4X4X4X4X4X4X4X4X4X4X4X4X4X4X4X4X4X4X4X4X4X4X4X4XOX4X4X4X4XOX4X4XOX4X4XOX4X4XOX4X4X4X4XOXOX4X4X4XOX4X4X4X4X4XOXOX4X4X4X4X4X",
"4X4X4X4X4X4X4X4X4X4X4X4X4X4X4X4X4X4X4X4X4X4X4X4X4X4XOX4X4X4X4X4X4X4XOX4X4X4X4X4XOX4X4X4XOX4X4X4X4X4X4X4X4X4X4X4X4X4X4X4XOX4X4X4X",
"4X4X4X4X4X4X4X4X4X4X4X4X4X4X4X4X4X4X4X4X4X4X4X4X4X4X4XXX4X4X4XOX4XOX4X4X[.4X4X4X4XOXOX4X4X4X4X4X4X4X4X4X4X4X4X4X4X4X4X4X4X4X4X4X",
"4X4X4X4X4X4X4X4X4X4X4X4X4X4X4X4X4X4X4X4X4X4X4X4X4X4XOX4X4X4X4X4XOX4XOX4X4X4X4X4X4X4X4X4X4X4X4X4X4X4X4X4X4X4X4XOX4X4X4X4X4X4X4X4X",
"4X4X4X4X4X4X4X4X4X4X4X4X4X4X4X4X4X4X4X4X4X4X4X4X4X4X4X4XOX4X[.OXOX4X4XOX4XOXOX4XOX4XOXOXOX4XOXOXOXOX4XOXOXOX4XXX4X4XOXOXOX4XOXXX"
};
