/* XPM */
static char *adf71d6a07c24722a38190113b86d6d0u7jOP1hJac7ciAUP[] = {
/* columns rows colors chars-per-pixel */
"64 64 246 2 ",
"   c #060604",
".  c #0B0A06",
"X  c #0D0D0B",
"o  c #050A09",
"O  c #130D05",
"+  c #110E0C",
"@  c #1A0B06",
"#  c #0E110C",
"$  c #07100A",
"%  c #11110E",
"&  c #1B140C",
"*  c #171308",
"=  c #0B0E12",
"-  c #030D13",
";  c #120E10",
":  c #1E0F14",
">  c #0C1313",
",  c #081619",
"<  c #141312",
"1  c #1A1514",
"2  c #1B1A15",
"3  c #1C1B1B",
"4  c #161919",
"5  c #27140A",
"6  c #241C14",
"7  c #231C1B",
"8  c #271816",
"9  c #351C15",
"0  c #310E06",
"q  c #17201D",
"w  c #35230D",
"e  c #2B2215",
"r  c #24231B",
"t  c #2C241A",
"y  c #252317",
"u  c #352312",
"i  c #372718",
"p  c #041C24",
"a  c #151C23",
"s  c #241D23",
"d  c #082329",
"f  c #172627",
"g  c #03333C",
"h  c #0F2D35",
"j  c #232322",
"k  c #2A2A25",
"l  c #2B2A27",
"z  c #362B24",
"x  c #383429",
"c  c #262E34",
"v  c #383A36",
"b  c #273331",
"n  c #48190D",
"m  c #4D261A",
"M  c #672F1A",
"N  c #47382B",
"B  c #593527",
"V  c #423A34",
"C  c #573B35",
"Z  c #4C2C24",
"A  c #6E3A2C",
"S  c #37403D",
"D  c #48453C",
"F  c #57463A",
"G  c #544B39",
"H  c #6C492A",
"J  c #754E29",
"K  c #754A26",
"L  c #7B532D",
"P  c #75502A",
"I  c #664539",
"U  c #794635",
"Y  c #7C5630",
"T  c #7B5A34",
"R  c #785937",
"E  c #6D5030",
"W  c #7E603E",
"Q  c #0E3949",
"!  c #2E3D43",
"~  c #533B49",
"^  c #633D4A",
"/  c #164A56",
"(  c #0B4A55",
")  c #394443",
"_  c #2A4D4D",
"`  c #085465",
"'  c #0E566E",
"]  c #2D556B",
"[  c #0D6575",
"{  c #256677",
"}  c #366675",
"|  c #2C6E75",
" . c #474945",
".. c #574A44",
"X. c #57544A",
"o. c #575B55",
"O. c #4D4E51",
"+. c #674A43",
"@. c #744D43",
"#. c #67594A",
"$. c #775349",
"%. c #6D5953",
"&. c #5E615B",
"*. c #64655D",
"=. c #6C6357",
"-. c #766A5A",
";. c #796850",
":. c #535B69",
">. c #4F6C73",
",. c #6B6C63",
"<. c #676B65",
"1. c #6C7167",
"2. c #787872",
"3. c #835C35",
"4. c #855E39",
"5. c #864C35",
"6. c #85613B",
"7. c #8A6339",
"8. c #916A3F",
"9. c #885A4C",
"0. c #8F594C",
"q. c #896846",
"w. c #936C47",
"e. c #8E714B",
"r. c #95724D",
"t. c #986958",
"y. c #8B7356",
"u. c #9D7A56",
"i. c #9D7D5A",
"p. c #967756",
"a. c #866855",
"s. c #A66759",
"d. c #A37A5A",
"f. c #AC6C54",
"g. c #967B62",
"h. c #8B7A69",
"j. c #AB7966",
"k. c #B87966",
"l. c #A66C60",
"z. c #A85F50",
"x. c #C37D6F",
"c. c #77847A",
"v. c #9F815F",
"b. c #A3825D",
"n. c #9A8569",
"m. c #9D8B72",
"M. c #968676",
"N. c #948A77",
"B. c #A48562",
"V. c #A98662",
"C. c #AA8963",
"Z. c #A38A6B",
"A. c #A68A6B",
"S. c #AA906F",
"D. c #A78B73",
"F. c #A59277",
"G. c #B88770",
"H. c #C78673",
"J. c #D69579",
"K. c #CE8C72",
"L. c #E6997B",
"P. c #156C8A",
"I. c #2E768B",
"U. c #166E99",
"Y. c #507888",
"T. c #33839D",
"R. c #398EAE",
"E. c #18859A",
"W. c #4B8C98",
"Q. c #718F90",
"!. c #4B97B1",
"~. c #709BA9",
"^. c #52A5B8",
"/. c #63ABB8",
"(. c #3E9CC6",
"). c #4DAEC5",
"_. c #6AB1C1",
"`. c #6BCCDF",
"'. c #9C9786",
"]. c #899995",
"[. c #8F918D",
"{. c #AB9D8B",
"}. c #B69785",
"|. c #B4A48D",
" X c #A8A296",
".X c #BAAA94",
"XX c #BCAE9A",
"oX c #B4A797",
"OX c #BCB39D",
"+X c #9AAEAD",
"@X c #ABB4AA",
"#X c #BCB4A4",
"$X c #BEB9A4",
"%X c #BDBBAB",
"&X c #B8B5A9",
"*X c #BBB9B3",
"=X c #ABB2AA",
"-X c #879AA0",
";X c #D59A85",
":X c #CC9984",
">X c #EE9D83",
",X c #C8AB97",
"<X c #C2B39D",
"1X c #CAB39C",
"2X c #D4A890",
"3X c #F7AC95",
"4X c #E8B399",
"5X c #F0AB91",
"6X c #C3B5A2",
"7X c #C4BAA5",
"8X c #C9BBA6",
"9X c #C4BCAC",
"0X c #CBBDAA",
"qX c #C8B6A8",
"wX c #C4BDB1",
"eX c #CBBEB3",
"rX c #D9B9A7",
"tX c #F3B9A3",
"yX c #BDC0AB",
"uX c #B4C2BC",
"iX c #C4C1AD",
"pX c #CBC1AD",
"aX c #C4C0A5",
"sX c #D0C1AE",
"dX c #C4C2B3",
"fX c #CBC4B4",
"gX c #CFC8B6",
"hX c #CCC5B9",
"jX c #CEC8B9",
"kX c #C4C4B9",
"lX c #D2C5B3",
"zX c #D2C9B7",
"xX c #D4CBBA",
"cX c #D9CDBC",
"vX c #D6C9B7",
"bX c #DBD1BF",
"nX c #E7C3A9",
"mX c #B7BBC1",
"MX c #B0CCD0",
"NX c #A4F4FF",
"BX c #DED3C1",
"VX c #D7D1C3",
"CX c #CCCEC4",
"ZX c #E0D4C3",
"AX c #CCFAFC",
"SX c #E6FFFF",
/* pixels */
"q.T 6.q.u.y.G  . .D #.a.q.e.e.y.G $ , p - f ) c , , , , , , 4 $ , - , c *XeX&X=X% < O * % < > % kX2.* @ X.* & * xXVXcXVXVXBXBXBX",
"r.e.u.u.r.;.F O. ...%.y.y.e.e.p.#.k c f f f b b f - , 4 f f o > > - , &.*X&XwX X% + & * . X < < hX2.X. XhXhXxXhXxXxXxXVXVXBXZXZX",
"i.e.p.u.u.p...X.X...%.y.y.e.e.p.X.* a f f q , o - a j 4 , , $ $ o X , 3 &X9XeX'.%X&XwXwX*X+ ; % kXfXhXhXhXVXhXzXxXxXxXbXBXBXBXZX",
"i.e.u.u.d.i.X.X.o.X.%.y.y.e.e.p.#.& a a 4 4 > > - = o > , o - # o > - q kX%X6X7XwX9XeXeXwX@ + 1 hXfXhXdXVXfXzXxXxXxXxXVXBXBXBXZX",
"i.e.b.d.u.i.#.o.o.o.=.g.p.p.p.i.-.& 3 , - 4 q , = = > = - o o o - -XMXMX@X%X$X7X%XdX9X9X9XO V [.fXjXhXzXgXgXxXxXcXcXcXcXbXBXBXZX",
"b.e.i.d.b.n.%.&.&.&.;.g.i.p.i.n.#.% - - d f , d p d , , , - , - p d d d @X&X9X#X%X%XiXiX0XfX9XeXfXfXfXfXzXzXfXcXcXxXcXcXbXBXBXZX",
"b.r.B.B.b.n.%.*.&.*.-.g.g.i.B.n.-.b ! / _ _ ] } W.] d p g g } +X/ } / ~.@X%X#XiX%X%XyX7XiXpXpXgXgX9XxXfXfXzXzXzXxXcXcXcXbXBXBXZX",
"b.q.b.V.b.n.%.*.&.*.-.g.n.n.B.n.1.h / / / / { | W.W./._.`.^.( g Q g Q g *X%X7X$X%X%XyXaXiXiXfXpXfXfXgXgXgXzXgXzXxXcXcXcXbXBXBXZX",
"b.q.B.V.C.n.=.<.<.,.-.n.n.B.B.m.Q.Q.W.I.( ' { I.T.T.^.).`.`.`.NXNXAXg h @X7XqXqX7X9X9XiXdXdXdXfXfXfXfXgXgXzXzXzXxXcXcXcXBXBXZXZX",
"b.q.V.V.C.Z.=.<.,.,.-.n.n.Z.A.m.2./ / ' I./.I.I.!.T.P.[ [ E.).`./.W.Q.MX*X0X6XqX9XwXeXwXkXkXdXfXfXfXfXgXgXzXzXzXxXcXcXcXBXBXZXZX",
"b.6.V.C.C.Z.=.1.,.1.-.m.Z.A.A.F.[.>.Y.I.| ( ` ` ` I.[ ` ( ( ` { ` W.AXSX*X7X$X7X9XwXwXeXdXdXeXfXfXfXfXgXgXzXzXzXxXxXcXcXbXBXBXZX",
"C.6.V.C.C.Z.=.,.1.1.-.m.D.A.S.F.c.b / ( ( W.| ( I.I.' ` ` ' ' { [ | } Y.@X%X9X$X9XwXwX9XeXeXeXfXpXfXfXgXgXzXzXxXxXxXcXcXbXBXZXZX",
"C.6.C.C.C.Z.=.1.1.1.-.m.D.S.S.F.c._ / { { { W.' [ P.' ` [ U.`.I.` ` W.AX+X&X$X9X%X*X9X9X0XpX0XpXpXfXfXfXgXjXzXxXxXxXcXbXBXBXBXZX",
"C.T C.C.C.Z.=.1.1.1.-.D.F.S.S.F.].>.W.T.' { !.!.` P.!.!.T.!.T.NX{ ~.MXAXuX&X#X$X%X*XwXdXiXpXpXpXfXfXfXfXgXjXzXzXxXxXxXbXbXBXBXBX",
"C.T V.C.C.Z.=.1.1.,.-.m.F.S.S.'.Q.I.I.R.P.I.!.^.` { ] Q Q h d c a h d ) '.$X7X9X%X*XwXeXdXdXdXiXfXfXfXfXgXjXzXzXxXxXxXcXbXVXBXBX",
"C.T V.C.V.Z.=.<.<.,.-.m.D.S.S.'.~.P.U.U.P.P.R.^.{ } p h f q ; 7 s j c f z D y.XX9X*XwXkXkXkXdXdXfXfXfXfXhXjXzXzXxXxXxXxXbXVXBXBX",
"C.T b.C.V.Z.#.<.<.<.;.m.F.A.S.'.~.R.R.(.P.P.).).W.Q a s 7 * 1 8 1 z j 7 z z x X.OX7XdX%XkXyXdXfXfXfXgXgXgXgXzXzXxXcXcXcXbXBXBXBX",
"C.T b.V.B.Z.#.<.<.<.=.m.D.Z.S.F.~.{ P.(.P.P.R.^./ d 3 s 5 5 @ 1 6 6 7 k z k V x '.9XiXyXyXdXfXfXfXfXgXfXgXgXzXzXcXcXcXcXbXBXBXBX",
"C.T d.V.B.n.#.*.*.*.=.m.D.Z.S.F.Q.Q Q !.I.P.^._.p - 3 1 9 8 9 5 @ 6 8 8 8 l x V x &X%XiXdXiXhXeXfXfXfXfXgXgXzXzXcXcXcXcXcXbXBXBX",
"C.T u.b.b.n.X.*.*.*.#.m.D.Z.A.m.].>.} W.} I.^._.p > 1 8 +.F I C #.+.+.N z 8 8 j x %XdX9XfX7XhXhXfXfXfXfXgXgXzXzXcXxXcXcXcXbXbXBX",
"B.T u.b.b.n.G o.&.&.#.n.n.n.Z.m.[.Q.Q.>.Q ] Y.~., X 5 C t.t.U t.9.l.j.A.A n i 8 v  X%X9X9XfXeXeXfXfXfXfXgXgXgXzXcXcXcXcXcXcXbXBX",
"B.T i.d.b.n.G o.o.o.#.n.n.n.Z.m.[.) p , , :.] >., @ 9 t.l.k.k.0.t.J.U ;X:X9.Z 9 z *X%X9X7X9XhXdXfXfXfXfXgXgXgXzXxXcXcXcXcXcXbXbX",
"B.T u.u.i.g.G o.o.o.G n.n.n.Z.m.h.7 = , = :.} Y.< C a.t.k.H.k.H.H.J.;X4X4X4XG.$.z %X%X9X9XeXkXkXdXfXfXgXgXgXgXzXzXcXcXcXcXcXbXbX",
"v.T i.u.i.g.G X.o.o.G n.n.n.n.m.M.8 3 > ; :.:.! k $.9.l.l.x.K.;X>XK.;XtXtXtX4Xg.F.#XiXiX9XdXkXkXdXfXfXgXgXgXgXzXzXcXcXcXcXcXbXbX",
"v.T i.u.u.g.F X.o.X.G h.M.n.n.M.h.O < = ; ~ O.~ C $.@.n 9 n s.H.0.M n A M 4XtXA.1X8X9X%XdXdXdXdXdXfXgXgXgXgXzXzXcXcXcXcXcXbXBXBX",
"v.T u.u.u.p.D  . . .G M.h.h.M.M.M.O o 4 o O.^ ^ F $.m C C Z M :Xl.A 0 n 5.l.tXd.nX<X7XfXwXwXhXdXfXfXfXgXgXgXzXzXxXcXcXcXcXbXBXBX",
"i.T u.r.u.p.N  .O. ...2.6 e e e t + v ! v )  .%.#.+.Z B 0 $.A ;X:Xs.U 5.H.5X3X5Xd.,XlX%XdXhX9XpXfXfXfXgXgXgXzXzXxXxXcXcXcXcXbXBX",
"i.T u.r.r.p.N  . . .V x y y 6 6 r   o mX+X[.[.[.%.$.$.U 0.t.0.H.tX;XH.5X3XtX3Xk.4X1XqXeXeXeXfX9XfXfXfXfXgXgXzXzXzXxXcXcXcXcXbXBX",
"u.4.r.r.r.p.N D )  . .2 y ..[.kXO.Q.> MXMX@X! -X2...t.G.k.s.5.x.tX3X3X>X>X>X5XK.:XrX0X7XeXfX9XfXfXfXfXgXgXgXzXzXxXxXcXcXcXcXbXBX",
"p.4.w.w.w.e.N D  .) v 6 &  .<.*.CXf 4 *XmX=X].].2.X.9.f.x.z.z.k.5X3X>X>XL.L.>XJ.2X1XqX9XfXdX9XfXfXfXfXgXgXgXgXzXxXxXcXcXcXcXbXBX",
"r.4.w.w.w.e.x v v ) v * 2 D <.1.@X2 f mX+X].].2.2.~ $.t.k.f.M M 5.k.K.>X>XL.J.tXrX0XqX9X%X%XdXdXdXdXfXfXgXgXgXzXzXxXcXcXcXcXbXBX",
"r.4.w.w.w.e.x v S S x 1 %  .<.,.&X& l +X[.<.) ].2.V $.0.s.s.A M U H.3XJ.>XJ.H.,XqXqX9X%XiXdXdXwXdXdXfXfXfXgXgXzXzXzXxXcXcXcXbXbX",
"w.4.w.q.w.q.i V v v x % % D ,.,.%X2 k ].o.) ) O.<.*.+.;.9.M n k.5.5.A ;X;XH.G.1X6X7X9X%X%XwXdX%XdXfXfXfXfXgXgXzXzXzXcXcXcXcXbXbX",
"q.3.q.q.w.q.i V v v x % <  .,.,.&X X2 $  .) ) Q.o.7 D +.B m U 5.f.k.z.k.G.:Xj.,X8X7X%XdX9X9X%XdX9X9XdXfXfXgXhXgXzXzXxXcXcXcXcXcX",
"w.4.q.q.q.q.u x v v x X % D *.*.%X'.r # O.) c > X X x C I U A A A 5.d.0.t.q.D.,X6X$X%X#X7X9X9X9X9X9XiXfXfXfXgXgXjXzXxXcXvXcXcXcX",
"w.6.q.q.q.q.i x x v l . < D *.,. X=X2 # 1.v < = < 1 @ z Z C $.m 9.;XU H E q.,X8X6X#X$X$X9X#XOX$X9X9XiXpXfXfXfXfXzXzXzXxXvXvXcXcX",
"w.6.6.6.6.q.i x x v x X . X X     $ $ # < o 4 4 ; ; 8 N 9 Z I @.A 9.H H H t.:X,XXX6X$X#X#XOX7XaX7X9X9X9X9XpXpXfXzXzXzXzXzXvXcXcX",
"w.7.6.6.4.q.u z x b l . X X X X X 2 # # X X < < 1 1 @ N 5 5 9 m m B B B U G.:XS.1XoX#X#X$X#XOX$X$X7X7X9X9XpXpXfXlXzXzXzXzXvXvXvX",
"8.7.6.6.3.W w z x b l . X X X X # . o % X < < 3 1 + 8 z C Z 0 0 9 9 m H f.J.;X4X@ N #X=X9X#X#X$X$X7X7X9X9XpXpXpXfXfXlXlXzXzXvXvX",
"7.7.4.6.3.W w z k b l   < X X . X < X < X X < < 1 1 & C F C C C F I $.d.K.K.L.5XnX5 t t &X&X&X#X$X7X7X7X9X9X0XpXfXpXlXlXzXvXvXvX",
"7.7.4.4.4.T w i l l l . # X X X X X X X X ; < < % + & ..I @.@.A I $.w.k.K.J.J.J.nX5 y 2 r l *X&X#X$X7X9X9XpX7XfXpXpXlXlXvXvXvXvX",
"7.7.4.4.4.R u z l l l   X = X X X X X X < < < X . % O ..F @.@.$.$.9.t.G.k.H.K.;XH 5 6 r 7 1 k y  X%X#X%X$X$X9X7XpXsXlXlXlXlXlXlX",
"7.7.4.3.3.T w z k k l   X X X X X + < < < < # X % . @ u +.I $.$.9.0.d.s.G.H.H.g.0 8 1 1 1 7 7 y 6 t #X9X9X7X9XpXpXpXpXpXpXsXsXsX",
"7.7.4.Y 3.T w i k k k   X X X + X < 4 < X X # < # % * @ i $.@.9.t.j.j.G.j.G.B 0 5 8 s 3 7 1 7 1 6 6 y t %X9X9X7X7X7X8X8X0X0XsXsX",
"7.4.3.L Y R w t k k k   X X X + < < < < < < < % % < O @ @ @ C a.D.D.D.}.I 0 5 5 1 3 4 1 7 7 2 r 2 7 r 6 x oX#X#X7X7X7X7X8X0XsXlX",
"4.3.Y L Y R w t k k k   X X X + < < < < < < < X % X % % O & & 8 0 0 5 5 5 8 6 1 < 4 4 4 7 7 2 2 3 3 2 7 2 z #X7X6X7X7X7X8X0XsXsX",
"4.4.Y L Y R w t k k k   X X X < # # < < < < ; + < % X < X % + 1 1 1 1 1 1 1 < < 4 > 4 < < 1 r 2 4 4 j 2 t y  X7X6X6X7X7X8X0X0XpX",
"4.4.3.L L R w e r k k   X X X < # # % % + ; ; + X < = X < < 4 < 4 < < < < 4 4 4 4 4 > < . < 1 3 3 4 3 3 2 k i #X#X6X6X7X8X8X0X0X",
"4.4.3.L L R u t r k k   . X X < % < < < < % % % < X X % < < < < < < < < < < < < < 4 < 2 < X X 4 < 3 3 2 7 t 6 %X9X6X7X<X8X6X7X0X",
"3.4.3.L L R u t y r j o . X X < X % % % % % % % % % % < < < < < < < < < < < < < 4 4 < < 4 < + % 3 + ; 4 < 2 2 V #XOX7X6X8X8X8X0X",
"4.4.3.L L R u t r r j o . X X > X X % % X % % % X % < < < < < < < < < < < < < < < 2 4 < 4 2 % X 4 + ; 4 % % y t %X#X6X6X6X8X7X8X",
"3.4.L L L R u t y r j   . X X X X X X X % % % % X % < < < < < < < < < < < < 4 4 < 2 2 4 < 4 % X 4 ; < < 3 < 1 z #X#XXX6X6X6X6X7X",
"3.3.L P P E u t y r j   . X + X % X X X X % % X % < < < < < < < < < < < < < < 4 < < 2 4 < < < < < + < X < 2 % y N.#XXXOXXX<X<X6X",
"Y 3.P J P E u t y r j   . + + X % X X X X X X X < < % < < < < < < < < < < < < < 4 < < < < < < < X < X < < < 1 t ..oXXXXXXX<X6X<X",
"Y 3.P J P E u e y r j   . % + X X X X X X X X X % % % < < < < < < < < < < < < < 4 < < < < < 4 < X %   < 3 < % 6 t oXXX.XXX<X<X<X",
"Y Y P J P E u t y r j   X % % X X X X X X X X % X % < < < < < < < < < < < < < < < < < < % < 4 < X X < < % < 2 6 6 XXoX.X<X.X.X<X",
"Y L J J P E i e y r j   V + + X X X X X . X X X X X % < < < % % % % % % % % < < < % < 4 < X + 2 X . X < < < 1 2 6 oXoX.XXXXXXX.X",
"Y Y P J P E i y y r j    .% + + X X X X . X X X X X % < < < % % % % % % % % < < < < < < < + + % % X X % < < 4 6 6 oXoXoX.X.X.X<X",
"L Y P J J E u 6 y r j    .% + % X X X X .   X X % % % % % % % % % % % % % % % < < < < < < < < X + X X % < < < 2 & h.oXoX.X|..X.X",
"P L J K H E i 6 y r j   v * + + X X X % .   X X % % % % % % % % % % % % % % % % % < < < < < < X . . X % < < < 1 & N oXoX.X.X.X.X",
"J L J K H E i 6 y r r   7 O X X X X X % X . o X X X X X X % % % # # # # X % % % % < < < < < % X . . X % < < < 1 6 6 oX|.oX|..X.X",
"J L K K H E i y y q 3   O O % X X X X X X . X X X X X X X X X X # X X X X X X X X X % < < < < < X X X # = < < 4 & t oXoX|.|.|..X",
"J J K K H H u y y 2 3   % + + + % X X X X X X X X X X X X X X X X X X X X X X X X X X % < < < % X X X X > < < 1 + y {.oX|.|.|.|.",
"J J K K H H w 6 y r r   1 O X + % X X X X X X . . X X X X X X X X X o o X X X X X X X X X X X . . . X # < < < < 2 * {.{.{.|.{.|."
};
